<svg version="1.1" xmlns="http://www.w3.org/2000/svg" viewBox="0 0 1248.5 814.5" width="2497" height="1629">
  <!-- svg-source:excalidraw -->
  
  <defs>
    <style>
      @font-face {
        font-family: "Virgil";
        src: url("https://excalidraw.com/Virgil.woff2");
      }
      @font-face {
        font-family: "Cascadia";
        src: url("https://excalidraw.com/Cascadia.woff2");
      }
    </style>
  </defs>
  <rect x="0" y="0" width="1248.5" height="814.5" fill="#ffffff"></rect><g stroke-linecap="round" transform="translate(306.5 199) rotate(0 162 112.75)"><path d="M-0.8 0.4 C112.18 1.88, 221.16 0.55, 323.44 -0.28 M0.32 0.2 C104.06 0.54, 207.56 1.05, 323.82 0.4 M323.7 0.56 C324.37 61.75, 323.37 126.68, 325.12 226.69 M323.81 -0.7 C323.26 60.64, 323.8 119.99, 324.02 225.14 M322.95 224.43 C232.77 222.93, 142.68 223.37, -0.01 225.71 M324.63 225.5 C240.87 225.69, 156.69 225.44, -0.41 225.74 M0.82 225.12 C1.17 145.05, 2.71 60.34, 0.38 0.31 M0.24 225.92 C0.03 140.99, -0.48 56.86, 0.34 -0.83" stroke="#000000" stroke-width="1" fill="none"></path></g><g stroke-linecap="round"><g transform="translate(632.5 307) rotate(0 175.16299788964443 5.971131028034705)"><path d="M0.92 0.24 C59.23 2.28, 292.33 10.64, 350.37 12.63 M-0.05 -0.68 C58.12 1.03, 291.83 9.28, 349.89 11.1" stroke="#000000" stroke-width="1" fill="none"></path></g><g transform="translate(632.5 307) rotate(0 175.16299788964443 5.971131028034705)"><path d="M321.76 21.86 C333.1 16.44, 342.25 13.32, 349.45 12.16 M320.68 20.29 C329.87 18.3, 338.16 14.68, 349.72 11.17" stroke="#000000" stroke-width="1" fill="none"></path></g><g transform="translate(632.5 307) rotate(0 175.16299788964443 5.971131028034705)"><path d="M322.45 1.36 C333.61 3.04, 342.52 7.03, 349.45 12.16 M321.36 -0.22 C330.43 3.59, 338.52 5.77, 349.72 11.17" stroke="#000000" stroke-width="1" fill="none"></path></g></g><g stroke-linecap="round" transform="translate(960 34) rotate(0 139.25 119.75)"><path d="M140.27 -1.18 C169.63 24.69, 199.36 52.51, 277.29 118.48 M139.28 -0.55 C169.96 28.13, 200.44 54.61, 278.32 120.91 M277.06 121.02 C236.16 157.83, 196.94 191.17, 139.53 240.45 M279.01 119.03 C239.82 154.4, 201.89 187.54, 140.93 239.78 M139.54 239.7 C91.53 195.67, 41.6 157.84, 0.81 121.39 M140.98 240.35 C95.46 202.15, 52.17 164.45, 0.33 120.06 M-1.85 119.77 C45.02 80.44, 94.66 37.69, 140.31 -0.58 M0.65 120.78 C51.57 74.77, 102.71 28.5, 140.27 0.86" stroke="#000000" stroke-width="1" fill="none"></path></g><g stroke-linecap="round" transform="translate(210 550) rotate(0 238.75 127.25)"><path d="M-0.83 -0.21 C115.7 -1.5, 230.23 -0.64, 477.95 -0.85 M0.06 0.41 C154.01 -1.33, 307.93 -1.62, 477.4 0.04 M479.06 0.66 C476.64 86.77, 474.69 173.07, 479.08 255.87 M477.9 0.27 C478.35 54.18, 478.43 108.37, 476.75 254.41 M476.72 254.64 C363.66 257.15, 250.63 257.36, 0.57 255.18 M477.09 254.62 C338.29 252.21, 198.76 252.36, -0.33 254.38 M0.82 255.46 C-1.52 194.8, -2.77 133.9, 0.51 -0.59 M-0.71 255.03 C0.11 187.19, -0.82 118.49, -0.37 -0.02" stroke="#000000" stroke-width="1" fill="none"></path></g><g transform="translate(142.5 133) rotate(0 -13 39.75)" stroke="none"><path fill="#000000" d="M 0.22,1.54 Q 0.22,1.54 -3.80,2.08 -7.83,2.62 -18.12,2.85 -28.40,3.08 -39.16,1.72 -49.92,0.36 -58.56,-1.95 -67.21,-4.27 -73.39,-7.02 -79.57,-9.76 -83.03,-12.33 -86.49,-14.89 -88.08,-18.79 -89.68,-22.69 -89.59,-27.78 -89.51,-32.87 -88.00,-39.10 -86.48,-45.32 -81.06,-56.24 -75.63,-67.15 -70.73,-75.23 -65.82,-83.31 -58.07,-91.86 -50.32,-100.40 -44.11,-105.49 -37.90,-110.58 -33.96,-113.33 -30.01,-116.07 -25.38,-118.28 -20.74,-120.50 -12.15,-121.61 -3.56,-122.73 8.96,-120.73 21.48,-118.73 32.93,-113.38 44.38,-108.02 54.04,-100.66 63.70,-93.30 70.58,-85.37 77.46,-77.44 82.45,-67.79 87.43,-58.15 89.42,-50.35 91.41,-42.54 89.21,-32.13 87.02,-21.71 80.88,-6.51 74.74,8.68 71.86,15.81 68.98,22.94 66.74,28.42 64.51,33.90 62.24,38.29 59.98,42.68 56.56,48.44 53.15,54.20 48.10,62.39 43.06,70.59 37.58,77.99 32.10,85.40 25.86,92.17 19.62,98.95 13.18,104.17 6.74,109.39 -7.54,117.68 -21.83,125.97 -29.42,131.02 -37.00,136.08 -41.06,139.21 -45.11,142.33 -47.57,146.39 -50.02,150.44 -51.36,154.26 -52.69,158.08 -53.11,162.49 -53.52,166.89 -52.85,172.56 -52.18,178.24 -51.12,182.25 -50.05,186.27 -43.61,190.49 -37.16,194.72 -28.80,196.25 -20.45,197.79 -6.01,197.33 8.41,196.86 20.86,195.23 33.32,193.60 45.48,190.91 57.65,188.21 68.66,184.35 79.67,180.49 86.60,176.87 93.52,173.24 96.87,171.31 100.22,169.37 101.60,166.76 102.97,164.15 103.01,159.92 103.04,155.69 102.02,153.35 101.01,151.01 95.87,147.84 90.73,144.67 83.17,142.72 75.60,140.77 59.75,138.91 43.90,137.06 32.44,136.70 20.98,136.34 13.24,136.48 5.50,136.61 -1.82,136.67 -9.15,136.72 -14.76,136.32 -20.38,135.91 -34.54,134.58 -48.70,133.26 -59.47,132.12 -70.23,130.98 -77.78,130.65 -85.33,130.31 -89.82,130.31 -94.31,130.31 -100.55,130.31 -106.78,130.31 -111.16,130.31 -115.54,130.31 -120.09,128.95 -124.63,127.59 -127.34,124.21 -130.06,120.84 -126.71,104.41 -123.36,87.99 -120.01,77.63 -116.66,67.28 -112.54,61.14 -108.43,55.00 -97.30,49.54 -86.17,44.08 -69.00,41.08 -51.84,38.07 -37.91,37.67 -23.98,37.26 -14.71,38.25 -5.43,39.24 0.53,40.38 6.50,41.53 9.51,42.46 12.53,43.39 14.72,44.38 16.91,45.38 20.42,47.09 23.92,48.80 28.55,50.95 33.18,53.11 39.59,55.74 45.99,58.37 51.29,60.35 56.59,62.33 60.68,63.59 64.78,64.85 67.20,65.38 69.62,65.91 70.78,66.02 71.94,66.12 73.15,64.82 74.35,63.51 76.25,61.87 78.15,60.23 80.43,58.21 82.71,56.19 82.95,56.02 83.20,55.85 83.48,55.76 83.76,55.68 84.06,55.69 84.36,55.70 84.63,55.81 84.91,55.91 85.14,56.10 85.37,56.29 85.52,56.54 85.68,56.79 85.75,57.07 85.82,57.36 85.79,57.66 85.77,57.95 85.65,58.22 85.53,58.49 85.33,58.71 85.13,58.93 84.87,59.07 84.61,59.22 84.32,59.27 84.03,59.32 83.74,59.28 83.44,59.24 83.18,59.11 82.91,58.97 82.71,58.76 82.50,58.55 82.37,58.28 82.24,58.02 82.20,57.72 82.17,57.43 82.22,57.14 82.28,56.85 82.43,56.59 82.58,56.34 82.80,56.14 83.02,55.94 83.30,55.83 83.57,55.72 83.86,55.69 84.16,55.67 84.45,55.75 84.73,55.82 84.98,55.98 85.23,56.14 85.41,56.38 85.60,56.61 85.70,56.89 85.79,57.17 85.80,57.46 85.81,57.76 85.72,58.04 85.63,58.32 85.45,58.56 85.28,58.80 85.28,58.80 85.28,58.80 82.84,60.75 80.40,62.70 78.62,64.41 76.84,66.11 74.18,67.65 71.51,69.19 70.28,68.83 69.06,68.48 66.53,67.92 64.00,67.36 59.84,66.08 55.67,64.79 50.33,62.80 44.99,60.80 38.53,58.15 32.08,55.49 27.42,53.32 22.77,51.16 19.29,49.46 15.82,47.77 13.79,46.83 11.75,45.90 8.87,45.00 6.00,44.10 0.14,42.98 -5.71,41.85 -14.81,40.87 -23.91,39.89 -37.65,40.27 -51.40,40.66 -68.22,43.56 -85.05,46.46 -95.72,51.52 -106.39,56.59 -110.28,62.35 -114.17,68.11 -117.48,78.33 -120.79,88.54 -124.31,104.27 -127.82,120.00 -125.73,122.61 -123.64,125.23 -119.58,126.46 -115.51,127.68 -111.15,127.68 -106.78,127.68 -100.55,127.68 -94.31,127.68 -89.76,127.68 -85.22,127.69 -77.59,128.03 -69.95,128.37 -59.21,129.51 -48.46,130.64 -34.32,131.97 -20.18,133.29 -14.68,133.69 -9.17,134.10 -1.85,134.04 5.46,133.98 13.26,133.85 21.06,133.72 32.64,134.09 44.21,134.45 60.24,136.34 76.27,138.22 84.19,140.33 92.10,142.44 97.68,146.11 103.25,149.78 104.45,152.72 105.65,155.66 105.48,160.47 105.31,165.29 103.49,168.39 101.68,171.50 98.21,173.54 94.74,175.57 87.64,179.27 80.54,182.97 69.38,186.87 58.21,190.78 45.94,193.49 33.66,196.21 21.08,197.85 8.49,199.48 -6.21,199.93 -20.92,200.37 -29.74,198.65 -38.55,196.92 -45.44,192.12 -52.33,187.32 -53.56,182.93 -54.79,178.55 -55.47,172.60 -56.14,166.64 -55.66,161.93 -55.17,157.23 -53.72,153.15 -52.26,149.07 -49.51,144.69 -46.76,140.30 -42.61,137.10 -38.46,133.89 -30.81,128.79 -23.15,123.69 -9.03,115.52 5.09,107.35 11.39,102.26 17.69,97.17 23.84,90.50 29.99,83.83 35.41,76.52 40.82,69.21 45.85,61.04 50.89,52.86 54.26,47.17 57.64,41.48 59.86,37.19 62.08,32.90 64.31,27.43 66.54,21.96 69.42,14.82 72.31,7.69 78.38,-7.29 84.46,-22.27 86.66,-32.15 88.86,-42.02 86.97,-49.49 85.09,-56.96 80.28,-66.35 75.47,-75.73 68.78,-83.48 62.09,-91.22 52.67,-98.44 43.25,-105.65 32.14,-110.90 21.03,-116.15 8.88,-118.13 -3.26,-120.12 -11.45,-119.12 -19.65,-118.11 -24.08,-116.01 -28.52,-113.90 -32.37,-111.23 -36.23,-108.55 -42.30,-103.58 -48.37,-98.62 -55.97,-90.28 -63.57,-81.93 -68.42,-73.95 -73.26,-65.97 -78.58,-55.32 -83.91,-44.68 -85.38,-38.73 -86.84,-32.79 -87.00,-28.19 -87.16,-23.58 -85.95,-20.23 -84.74,-16.88 -81.59,-14.56 -78.45,-12.25 -72.47,-9.59 -66.49,-6.94 -58.03,-4.68 -49.57,-2.42 -39.01,-1.11 -28.46,0.19 -18.36,-0.06 -8.26,-0.32 -4.24,-0.93 -0.22,-1.54 -0.03,-1.55 0.15,-1.55 0.33,-1.51 0.52,-1.47 0.69,-1.38 0.86,-1.30 1.00,-1.18 1.14,-1.06 1.25,-0.90 1.36,-0.75 1.43,-0.58 1.50,-0.40 1.53,-0.21 1.56,-0.03 1.54,0.15 1.52,0.34 1.46,0.51 1.39,0.69 1.29,0.85 1.19,1.01 1.05,1.13 0.91,1.26 0.74,1.35 0.58,1.44 0.40,1.49 0.22,1.54 0.22,1.54 L 0.22,1.54 Z"></path></g></svg>