<svg version="1.1" xmlns="http://www.w3.org/2000/svg" viewBox="0 0 167 257.8754169364674" width="167" height="257.8754169364674">
  <!-- svg-source:excalidraw -->
  
  <defs>
    <style>
      @font-face {
        font-family: "Virgil";
        src: url("https://excalidraw.com/Virgil.woff2");
      }
      @font-face {
        font-family: "Cascadia";
        src: url("https://excalidraw.com/Cascadia.woff2");
      }
    </style>
  </defs>
  <g stroke-linecap="round" transform="translate(31.127209929439687 10) rotate(0 52.372790070561564 80.09718717017026)"><path d="M26.19 0 M26.19 0 C46.43 3.39, 56.83 -2.15, 78.56 0 M26.19 0 C39.66 -0.86, 53.79 1.72, 78.56 0 M78.56 0 C97.85 0.12, 101.66 6.68, 104.75 26.19 M78.56 0 C94.17 -3.83, 105.34 11.69, 104.75 26.19 M104.75 26.19 C106.73 52.81, 103.57 81.67, 104.75 134.01 M104.75 26.19 C106.2 63.78, 106.24 102.6, 104.75 134.01 M104.75 134.01 C106.94 149.91, 99.73 161.18, 78.56 160.19 M104.75 134.01 C105.34 149.03, 91.66 158.98, 78.56 160.19 M78.56 160.19 C61.67 161.05, 47.78 158.54, 26.19 160.19 M78.56 160.19 C58.7 158.99, 40.57 161.82, 26.19 160.19 M26.19 160.19 C10.6 161.83, -0.05 152.19, 0 134.01 M26.19 160.19 C7.56 156.12, 3.09 150.81, 0 134.01 M0 134.01 C-2.92 104.13, -4.3 65.58, 0 26.19 M0 134.01 C1.99 105.62, -1.28 73.89, 0 26.19 M0 26.19 C1.3 8.81, 6.71 -2.52, 26.19 0 M0 26.19 C-4.22 4.63, 7.48 -2.85, 26.19 0" stroke="#000000" stroke-width="2" fill="none"></path></g><g stroke-linecap="round" transform="translate(43.119427373252165 22.21331133039132) rotate(0 41.26813702717038 61.25956285362224)"><path d="M20.63 0 M20.63 0 C28.12 -3.11, 41.5 -3.13, 61.9 0 M20.63 0 C32.02 1.98, 45.04 0.48, 61.9 0 M61.9 0 C72.57 -2.05, 80.93 3.54, 82.54 20.63 M61.9 0 C76.25 2.96, 80.93 10.92, 82.54 20.63 M82.54 20.63 C79.5 47.07, 84.52 78.79, 82.54 101.89 M82.54 20.63 C83.37 49.42, 83.99 74.98, 82.54 101.89 M82.54 101.89 C86.25 116.63, 76.18 120.4, 61.9 122.52 M82.54 101.89 C78.18 114.43, 75.35 126.28, 61.9 122.52 M61.9 122.52 C51.39 121.63, 43.08 119.27, 20.63 122.52 M61.9 122.52 C46.78 123.04, 34.72 122.66, 20.63 122.52 M20.63 122.52 C6.83 123.24, -1.01 112.1, 0 101.89 M20.63 122.52 C9.97 121.87, 0.44 117.07, 0 101.89 M0 101.89 C-2.72 68.26, 0.17 37.4, 0 20.63 M0 101.89 C-2.96 72.76, -0.71 42.52, 0 20.63 M0 20.63 C-2.02 4.36, 3.21 -3.56, 20.63 0 M0 20.63 C-1.24 4.03, 4.79 -2.2, 20.63 0" stroke="#000000" stroke-width="2" fill="none"></path></g><g stroke-linecap="round" transform="translate(75.93603799590505 149.97573911372967) rotate(0 8.45152640451829 8.45152640451829)"><path d="M2.49 1.24 C4.14 0.38, 8.65 1, 10.64 0.94 C12.62 0.88, 13.54 -0.13, 14.4 0.85 C15.27 1.83, 15.94 4.7, 15.84 6.8 C15.73 8.9, 14.41 11.95, 13.77 13.46 C13.14 14.98, 13.21 15.28, 12.04 15.89 C10.86 16.49, 8.6 17.87, 6.74 17.08 C4.88 16.29, 2.22 13.07, 0.88 11.15 C-0.45 9.22, -2.23 7.15, -1.28 5.53 C-0.32 3.9, 4.94 2.24, 6.63 1.42 C8.31 0.6, 8.93 0.56, 8.81 0.62 M16.1 2.28 C17.36 3.12, 17.48 3.2, 17.01 4.7 C16.54 6.19, 14.13 8.94, 13.26 11.25 C12.39 13.57, 13.2 17.87, 11.8 18.57 C10.4 19.28, 6.4 16.35, 4.85 15.47 C3.3 14.58, 3.47 14.27, 2.52 13.24 C1.57 12.21, -0.4 10.86, -0.84 9.27 C-1.29 7.68, -1.24 5.63, -0.15 3.68 C0.93 1.73, 3.67 -2.36, 5.65 -2.42 C7.63 -2.48, 10.23 2.45, 11.73 3.34 C13.22 4.23, 14.45 3, 14.63 2.91" stroke="#000000" stroke-width="2" fill="none"></path></g><g stroke-linecap="round" transform="translate(55.36603215070636 37.80931954885364) rotate(0 29.021532249714937 14.709388265792143)"><path d="M7.35 0 M7.35 0 C17.05 -0.48, 25.94 -0.18, 50.69 0 M7.35 0 C22.2 -1.05, 39.32 -1.69, 50.69 0 M50.69 0 C56.11 2.57, 56.65 5.96, 58.04 7.35 M50.69 0 C57.72 0.1, 55.79 -1.08, 58.04 7.35 M58.04 7.35 C59.34 11.78, 58.18 15.64, 58.04 22.06 M58.04 7.35 C59.57 13.03, 58.4 17.21, 58.04 22.06 M58.04 22.06 C54.25 25.91, 55.33 32.69, 50.69 29.42 M58.04 22.06 C55.91 25.21, 57.13 29.36, 50.69 29.42 M50.69 29.42 C40.58 25.87, 23.95 26.54, 7.35 29.42 M50.69 29.42 C35.07 30.13, 18.99 28, 7.35 29.42 M7.35 29.42 C5.14 28.85, 0.38 28.21, 0 22.06 M7.35 29.42 C6.73 26.83, 4.02 22.79, 0 22.06 M0 22.06 C1.98 20.72, 2.94 12.12, 0 7.35 M0 22.06 C-0.84 16.3, -1.45 11.08, 0 7.35 M0 7.35 C-1.08 -0.03, 0.64 -1.91, 7.35 0 M0 7.35 C-3.26 1.91, 0.44 -1.73, 7.35 0" stroke="#000000" stroke-width="2" fill="none"></path></g><g stroke-linecap="round" transform="translate(55.36603215070636 90.40329504867509) rotate(0 29.021532249714937 14.709388265792143)"><path d="M7.35 0 M7.35 0 C15.61 -0.5, 31.07 2.05, 50.69 0 M7.35 0 C19.68 -1.22, 33.86 1.73, 50.69 0 M50.69 0 C54.2 3.51, 59.89 2.54, 58.04 7.35 M50.69 0 C53.34 -3.53, 56.09 4.69, 58.04 7.35 M58.04 7.35 C58.16 13.17, 59.96 19.18, 58.04 22.06 M58.04 7.35 C58.51 10.42, 56.92 14.65, 58.04 22.06 M58.04 22.06 C57.78 30.24, 53.73 27.89, 50.69 29.42 M58.04 22.06 C59.58 26.91, 54.25 31.84, 50.69 29.42 M50.69 29.42 C38.24 26.7, 34.73 30.69, 7.35 29.42 M50.69 29.42 C35.41 27.81, 22.49 29.29, 7.35 29.42 M7.35 29.42 C2.83 30.66, 3.72 24.72, 0 22.06 M7.35 29.42 C6.47 25.24, -1.94 26.12, 0 22.06 M0 22.06 C2.69 15.51, 0.65 14.63, 0 7.35 M0 22.06 C-1.2 16.31, -0.25 12.27, 0 7.35 M0 7.35 C-1.81 0.54, -0.38 -0.47, 7.35 0 M0 7.35 C-2.01 0.73, 2.37 2.5, 7.35 0" stroke="#000000" stroke-width="2" fill="none"></path></g><g transform="translate(10 189.54208360313407) rotate(0 73.5 29.166666666666657)"><text x="0" y="41.333333333333314" font-family="Virgil, Segoe UI Emoji" font-size="46.66666666666664px" fill="#000000" text-anchor="start" style="white-space: pre;" direction="ltr">Device</text></g></svg>