<svg version="1.1" xmlns="http://www.w3.org/2000/svg" viewBox="0 0 154 115.95019531249955" width="154" height="115.95019531249955">
  <!-- svg-source:excalidraw -->
  
  <defs>
    <style>
      @font-face {
        font-family: "Virgil";
        src: url("https://excalidraw.com/Virgil.woff2");
      }
      @font-face {
        font-family: "Cascadia";
        src: url("https://excalidraw.com/Cascadia.woff2");
      }
    </style>
  </defs>
  <g transform="translate(10 80.95019531249955) rotate(0 67 12.5)"><text x="0" y="18" font-family="Virgil, Segoe UI Emoji" font-size="20px" fill="#000000" text-anchor="start" style="white-space: pre;" direction="ltr">NAT gateway</text></g><g stroke-linecap="round" transform="translate(45.5 10) rotate(0 31.5 31.5)"><path d="M63 31.5 C63 33.32, 62.84 35.17, 62.52 36.97 C62.2 38.77, 61.72 40.56, 61.1 42.27 C60.48 43.99, 59.69 45.67, 58.78 47.25 C57.87 48.83, 56.8 50.35, 55.63 51.75 C54.46 53.14, 53.14 54.46, 51.75 55.63 C50.35 56.8, 48.83 57.87, 47.25 58.78 C45.67 59.69, 43.99 60.48, 42.27 61.1 C40.56 61.72, 38.77 62.2, 36.97 62.52 C35.17 62.84, 33.32 63, 31.5 63 C29.68 63, 27.83 62.84, 26.03 62.52 C24.23 62.2, 22.44 61.72, 20.73 61.1 C19.01 60.48, 17.33 59.69, 15.75 58.78 C14.17 57.87, 12.65 56.8, 11.25 55.63 C9.86 54.46, 8.54 53.14, 7.37 51.75 C6.2 50.35, 5.13 48.83, 4.22 47.25 C3.31 45.67, 2.52 43.99, 1.9 42.27 C1.28 40.56, 0.8 38.77, 0.48 36.97 C0.16 35.17, 0 33.32, 0 31.5 C0 29.68, 0.16 27.83, 0.48 26.03 C0.8 24.23, 1.28 22.44, 1.9 20.73 C2.52 19.01, 3.31 17.33, 4.22 15.75 C5.13 14.17, 6.2 12.65, 7.37 11.25 C8.54 9.86, 9.86 8.54, 11.25 7.37 C12.65 6.2, 14.17 5.13, 15.75 4.22 C17.33 3.31, 19.01 2.52, 20.73 1.9 C22.44 1.28, 24.23 0.8, 26.03 0.48 C27.83 0.16, 29.68 0, 31.5 0 C33.32 0, 35.17 0.16, 36.97 0.48 C38.77 0.8, 40.56 1.28, 42.27 1.9 C43.99 2.52, 45.67 3.31, 47.25 4.22 C48.83 5.13, 50.35 6.2, 51.75 7.37 C53.14 8.54, 54.46 9.86, 55.63 11.25 C56.8 12.65, 57.87 14.17, 58.78 15.75 C59.69 17.33, 60.48 19.01, 61.1 20.73 C61.72 22.44, 62.2 24.23, 62.52 26.03 C62.84 27.83, 62.92 30.59, 63 31.5 C63.08 32.41, 63.08 30.59, 63 31.5" stroke="#000000" stroke-width="2" fill="none"></path></g><g stroke-linecap="round"><g transform="translate(71.37760794614542 42.20400034320119) rotate(180.90938044919915 11.522629504425367 0.02450695954900084)"><path d="M0 0 C9.21 0.02, 18.42 0.04, 23.05 0.05 M0 0 C6.9 0.01, 13.8 0.03, 23.05 0.05" stroke="#7950f288" stroke-width="2" fill="none"></path></g></g><g stroke-linecap="round"><g transform="translate(82.90460263714249 24.54695884898615) rotate(180.17924328041914 -5.62550437203538 17.60583668655886)"><path d="M0 0 C-4.48 -0.06, -8.97 -0.11, -11.54 -0.15 M0 0 C-3.36 -0.04, -6.72 -0.08, -11.54 -0.15 M-11.54 -0.15 C-11.52 12.99, -11.49 26.13, -11.48 35.26 M-11.54 -0.15 C-11.52 12.78, -11.49 25.71, -11.48 35.26 M-11.48 35.26 C-8.86 35.28, -6.25 35.31, 0.29 35.36 M-11.48 35.26 C-8.94 35.28, -6.4 35.3, 0.29 35.36" stroke="#7950f288" stroke-width="2" fill="none"></path></g></g><g stroke-linecap="round"><g transform="translate(96.7467126081292 39.564364653760094) rotate(91.24465964669115 0.06913283847234197 2.683524718658475)"><path d="M0 0 C1.05 1.08, 2.1 2.17, 5.15 5.32 M0 0 C1.64 1.7, 3.29 3.4, 5.15 5.32 M5.15 5.32 C4.13 5.32, 3.1 5.33, 0.06 5.33 M5.15 5.32 C3.4 5.32, 1.65 5.33, 0.06 5.33 M0.06 5.33 C-1.97 5.35, -3.99 5.36, -5.01 5.37 M0.06 5.33 C-1.59 5.34, -3.24 5.35, -5.01 5.37 M-5.01 5.37 C-3.56 3.81, -2.11 2.26, 0 0 M-5.01 5.37 C-3.37 3.61, -1.73 1.85, 0 0" stroke="#7950f288" stroke-width="2" fill="none"></path></g></g><g stroke-linecap="round"><g transform="translate(66.20187797105427 39.39230274112742) rotate(91.24465964669115 0.06913283847234197 2.683524718658475)"><path d="M0 0 C1.81 1.87, 3.63 3.75, 5.15 5.32 M0 0 C1.22 1.26, 2.44 2.52, 5.15 5.32 M5.15 5.32 C3.81 5.32, 2.47 5.33, 0.06 5.33 M5.15 5.32 C3.78 5.32, 2.42 5.33, 0.06 5.33 M0.06 5.33 C-1.53 5.34, -3.11 5.35, -5.01 5.37 M0.06 5.33 C-1.37 5.34, -2.79 5.35, -5.01 5.37 M-5.01 5.37 C-3.66 3.92, -2.32 2.48, 0 0 M-5.01 5.37 C-3.37 3.61, -1.73 1.85, 0 0" stroke="#7950f288" stroke-width="2" fill="none"></path></g></g><g stroke-linecap="round"><g transform="translate(66.20187797105427 57.14975951241445) rotate(91.24465964669115 0.06913283847234197 2.683524718658475)"><path d="M0 0 C1.1 1.13, 2.19 2.26, 5.15 5.32 M0 0 C1.41 1.46, 2.82 2.92, 5.15 5.32 M5.15 5.32 C3.51 5.32, 1.88 5.33, 0.06 5.33 M5.15 5.32 C3.37 5.33, 1.59 5.33, 0.06 5.33 M0.06 5.33 C-1.92 5.35, -3.9 5.36, -5.01 5.37 M0.06 5.33 C-1.28 5.34, -2.62 5.35, -5.01 5.37 M-5.01 5.37 C-3.88 4.16, -2.75 2.95, 0 0 M-5.01 5.37 C-3.27 3.5, -1.53 1.64, 0 0" stroke="#7950f288" stroke-width="2" fill="none"></path></g></g><g stroke-linecap="round"><g transform="translate(66.20187797105427 21.634845969837215) rotate(91.24465964669115 0.06913283847234197 2.683524718658475)"><path d="M0 0 C1.08 1.11, 2.16 2.23, 5.15 5.32 M0 0 C1.76 1.82, 3.52 3.64, 5.15 5.32 M5.15 5.32 C3.14 5.33, 1.14 5.33, 0.06 5.33 M5.15 5.32 C3.89 5.32, 2.63 5.33, 0.06 5.33 M0.06 5.33 C-1.45 5.34, -2.96 5.35, -5.01 5.37 M0.06 5.33 C-1.09 5.34, -2.23 5.35, -5.01 5.37 M-5.01 5.37 C-3.62 3.88, -2.23 2.38, 0 0 M-5.01 5.37 C-3.47 3.72, -1.94 2.08, 0 0" stroke="#7950f288" stroke-width="2" fill="none"></path></g></g></svg>